<?xml version="1.0" encoding="utf-8"?>
<!-- Uploaded to: SVG Repo, www.svgrepo.com, Generator: SVG Repo Mixer Tools -->
<svg width="800px" height="800px" viewBox="0 0 1024 1024" class="icon"  version="1.1" xmlns="http://www.w3.org/2000/svg"><path d="M341.333333 810.666667a21.333333 21.333333 0 0 0-21.333333-21.333334h-85.333333a21.333333 21.333333 0 0 0-21.333334 21.333334v128a21.333333 21.333333 0 0 0 21.333334 21.333333h85.333333a21.333333 21.333333 0 0 0 21.333333-21.333333v-128zM810.666667 810.666667a21.333333 21.333333 0 0 0-21.333334-21.333334h-85.333333a21.333333 21.333333 0 0 0-21.333333 21.333334v128a21.333333 21.333333 0 0 0 21.333333 21.333333h85.333333a21.333333 21.333333 0 0 0 21.333334-21.333333v-128z" fill="#455A64" /><path d="M597.333333 170.666667l42.666667-106.666667M426.666667 170.666667l-42.666667-106.666667" fill="none" /><path d="M170.666667 640v192s0 42.666667 42.666666 42.666667h597.333334c42.666667 0 42.666667-42.666667 42.666666-42.666667v-192H170.666667zM320 149.333333h384v42.666667H320z" fill="#FF9800" /><path d="M288 757.333333m-53.333333 0a53.333333 53.333333 0 1 0 106.666666 0 53.333333 53.333333 0 1 0-106.666666 0Z" fill="#FFF8E1" /><path d="M736 757.333333m-53.333333 0a53.333333 53.333333 0 1 0 106.666666 0 53.333333 53.333333 0 1 0-106.666666 0Z" fill="#FFF8E1" /><path d="M853.333333 565.333333V640H170.666667V245.333333A53.333333 53.333333 0 0 1 224 192h576a53.333333 53.333333 0 0 1 53.333333 53.333333v320z" fill="#FFC107" /><path d="M778.666667 234.666667h-533.333334a32 32 0 0 0-32 32v277.333333a53.333333 53.333333 0 0 0 53.333334 53.333333h490.666666a53.333333 53.333333 0 0 0 53.333334-53.333333v-277.333333a32 32 0 0 0-32-32z" fill="#9FA8DA" /><path d="M810.666667 362.666667H213.333333v-96a32 32 0 0 1 32-32h533.333334a32 32 0 0 1 32 32V362.666667z" fill="#263238" /><path d="M256 277.333333h234.666667v42.666667H256zM533.333333 277.333333h85.333334v42.666667h-85.333334z" fill="#64DD17" /><path d="M448 597.333333h-170.666667v-138.666666a32 32 0 0 1 32-32h106.666667a32 32 0 0 1 32 32V597.333333zM746.666667 597.333333h-170.666667v-138.666666a32 32 0 0 1 32-32h106.666667a32 32 0 0 1 32 32V597.333333z" fill="#7986CB" /><path d="M606.506667 597.333333c-5.674667-6.336-9.173333-13.589333-9.173334-21.333333 0-23.125333 29.312-42.666667 64-42.666667s64 19.541333 64 42.666667c0 7.744-3.498667 14.997333-9.173333 21.333333h48.042667c2.24-6.848 3.797333-13.909333 3.797333-21.333333 0-47.061333-47.850667-85.333333-106.666667-85.333333s-106.666667 38.272-106.666666 85.333333c0 7.424 1.557333 14.485333 3.797333 21.333333h48.042667z" fill="#3949AB" /></svg>